<?xml version="1.0" encoding="utf-8"?>
<!-- Generator: Adobe Illustrator 26.2.1, SVG Export Plug-In . SVG Version: 6.00 Build 0)  -->
<svg version="1.1" id="Capa_1" xmlns="http://www.w3.org/2000/svg" xmlns:xlink="http://www.w3.org/1999/xlink" x="0px" y="0px"
	 viewBox="0 0 1280 800" style="enable-background:new 0 0 1280 800;" xml:space="preserve">
<style type="text/css">
	.st0{fill:none;}
	.st1{font-family:'Roboto-Regular';}
	.st2{font-size:44.7044px;}
	.st3{fill:#376EB5;}
	.st4{font-size:61.9546px;}
	.st5{fill:none;stroke:#376EB5;stroke-width:3;stroke-miterlimit:10;}
	.st6{fill:#376EB5;stroke:#1D1E1B;stroke-width:0.25;stroke-miterlimit:10;}
	.st7{fill:#FFFFFF;stroke:#1D1E1B;stroke-width:0.25;stroke-miterlimit:10;}
	.st8{fill:none;stroke:#1D1D1B;stroke-width:0.25;stroke-miterlimit:10;}
	.st9{fill:#1D1D1B;}
	.st10{fill:#1D1D1B;stroke:#1D1D1B;stroke-width:3;stroke-miterlimit:10;}
	.st11{fill:none;stroke:#1D1D1B;stroke-width:3;stroke-miterlimit:10;}
	.st12{fill:none;stroke:#1D1D1B;stroke-miterlimit:10;}
	.st13{font-size:14.5289px;}
</style>
<rect x="52" y="11" class="st0" width="1146.6" height="102.2"/>
<text transform="matrix(1 0 0 1 52.0171 44.5283)"><tspan x="0" y="0" class="st1 st2">Las fracciones que representan la misma cantidad se </tspan><tspan x="0" y="53.6" class="st1 st2">consideran </tspan></text>
<g>
	<g>
		<rect x="986.2" y="209.9" class="st0" width="38" height="52.8"/>
		<text transform="matrix(1 0 0 1 986.2432 256.4113)" class="st3 st1 st4">3</text>
		<rect x="986.2" y="268.9" class="st0" width="38" height="52.8"/>
		<text transform="matrix(1 0 0 1 986.2432 315.3498)" class="st3 st1 st4">5</text>
		<line class="st5" x1="974.3" y1="262.7" x2="1031.3" y2="262.7"/>
	</g>
	<g>
		<rect x="250.9" y="217.5" class="st6" width="138.2" height="96.7"/>
		<rect x="389" y="217.5" class="st6" width="138.2" height="96.7"/>
		<rect x="527.2" y="217.5" class="st6" width="138.2" height="96.7"/>
		<rect x="665.4" y="217.5" class="st7" width="138.2" height="96.7"/>
		<rect x="803.5" y="217.5" class="st7" width="138.2" height="96.7"/>
	</g>
	<g>
		<rect x="246.2" y="359.7" class="st6" width="138.2" height="96.7"/>
		<rect x="384.3" y="359.7" class="st6" width="138.2" height="96.7"/>
		<rect x="522.5" y="359.7" class="st6" width="138.2" height="96.7"/>
		<rect x="660.7" y="359.7" class="st7" width="138.2" height="96.7"/>
		<rect x="798.9" y="359.7" class="st7" width="138.2" height="96.7"/>
	</g>
	<g>
		<rect x="988.7" y="352.2" class="st0" width="38" height="52.8"/>
		<text transform="matrix(1 0 0 1 988.6876 398.6477)" class="st3 st1 st4">6</text>
		<rect x="988.7" y="411.1" class="st0" width="38" height="52.8"/>
		<text transform="matrix(1 0 0 1 974.2755 458.2058)" class="st3 st1 st4">10</text>
		<line class="st5" x1="976.7" y1="405" x2="1033.8" y2="405"/>
	</g>
	<line class="st8" x1="315.3" y1="359.7" x2="315.3" y2="456.4"/>
	<line class="st8" x1="453.4" y1="359.7" x2="453.4" y2="454.8"/>
	<line class="st8" x1="591.6" y1="359.7" x2="591.6" y2="456.4"/>
	<line class="st8" x1="729.8" y1="359.7" x2="729.8" y2="454.8"/>
	<line class="st8" x1="867.9" y1="359.7" x2="867.9" y2="458.2"/>
</g>
<rect x="21.5" y="553.7" class="st0" width="380.5" height="43.4"/>
<text transform="matrix(1 0 0 1 21.4635 587.189)" class="st1 st2">AMPLIFICACIÓN</text>
<g>
	<rect x="34.1" y="640.8" class="st0" width="38" height="52.8"/>
	<text transform="matrix(1 0 0 1 34.1002 687.3228)" class="st3 st1 st4">3</text>
	<rect x="34.1" y="699.8" class="st0" width="38" height="52.8"/>
	<text transform="matrix(1 0 0 1 34.1002 746.2612)" class="st3 st1 st4">5</text>
	<line class="st5" x1="22.1" y1="693.6" x2="79.2" y2="693.6"/>
</g>
<g>
	<rect x="151.2" y="640.8" class="st0" width="38" height="52.8"/>
	<text transform="matrix(1 0 0 1 151.2096 687.3228)" class="st9 st1 st4">6</text>
	<rect x="151.2" y="699.8" class="st0" width="38" height="52.8"/>
	<text transform="matrix(1 0 0 1 132.3766 746.6274)" class="st9 st1 st4">10</text>
	<line class="st10" x1="139.2" y1="693.6" x2="196.3" y2="693.6"/>
</g>
<g>
	<rect x="268.3" y="640.8" class="st0" width="38" height="52.8"/>
	<text transform="matrix(1 0 0 1 268.3185 687.3228)" class="st9 st1 st4">9</text>
	<rect x="268.3" y="699.8" class="st0" width="38" height="52.8"/>
	<text transform="matrix(1 0 0 1 248.9146 747.2466)" class="st9 st1 st4">15</text>
	<line class="st11" x1="256.4" y1="693.6" x2="313.4" y2="693.6"/>
</g>
<g>
	<rect x="385.4" y="640.6" class="st0" width="38" height="52.8"/>
	<text transform="matrix(1 0 0 1 364.3092 687.9419)" class="st9 st1 st4">12</text>
	<rect x="385.4" y="699.6" class="st0" width="38" height="52.8"/>
	<text transform="matrix(1 0 0 1 367.1651 746.0083)" class="st9 st1 st4">20</text>
	<line class="st11" x1="373.5" y1="693.4" x2="430.5" y2="693.4"/>
</g>
<g>
	<rect x="502.5" y="640.8" class="st0" width="38" height="52.8"/>
	<text transform="matrix(1 0 0 1 478.567 687.9419)" class="st9 st1 st4">15</text>
	<rect x="502.5" y="699.8" class="st0" width="38" height="52.8"/>
	<text transform="matrix(1 0 0 1 483.7096 746.8804)" class="st9 st1 st4">25</text>
	<line class="st11" x1="490.6" y1="693.6" x2="547.6" y2="693.6"/>
</g>
<rect x="95.6" y="675" class="st0" width="27.2" height="36.9"/>
<text transform="matrix(1 0 0 1 95.6046 708.4868)" class="st1 st2">=</text>
<rect x="212.7" y="675.2" class="st0" width="27.2" height="36.9"/>
<text transform="matrix(1 0 0 1 212.7135 708.7397)" class="st1 st2">=</text>
<rect x="329.8" y="675" class="st0" width="27.2" height="36.9"/>
<text transform="matrix(1 0 0 1 329.8224 708.4868)" class="st1 st2">=</text>
<rect x="446.9" y="675" class="st0" width="27.2" height="36.9"/>
<text transform="matrix(1 0 0 1 446.9312 708.4868)" class="st1 st2">=</text>
<g>
	<g>
		<g>
			<path class="st12" d="M51.9,636c7.2-2,21.9-5.4,43.1-6.5c29.4-1.5,53.1,2.4,64.7,4.9"/>
			<g>
				<polygon class="st9" points="166.5,636 155.9,637.7 159.1,634.3 157.8,629.8 				"/>
			</g>
		</g>
	</g>
	<g>
		<g>
			<path class="st12" d="M52.8,636c14.1-4.2,43.1-11.6,84.7-13.9c64.1-3.6,114.3,7.1,133.8,12.1"/>
			<g>
				<polygon class="st9" points="278.1,636 267.4,637.4 270.7,634.1 269.5,629.5 				"/>
			</g>
		</g>
	</g>
	<g>
		<g>
			<path class="st12" d="M52.8,636c20.8-5.7,63.8-15.8,125.4-19c98.7-5.2,175.2,10.9,201.3,17.3"/>
			<g>
				<polygon class="st9" points="386.3,636 375.7,637.6 379,634.2 377.7,629.7 				"/>
			</g>
		</g>
	</g>
	<g>
		<g>
			<path class="st12" d="M51.9,636.4c28.4-7,86.9-19.3,170.8-23.3c137.8-6.5,243.8,14.4,276.7,21.7"/>
			<g>
				<polygon class="st9" points="506.3,636.4 495.7,638.2 498.9,634.7 497.5,630.3 				"/>
			</g>
		</g>
	</g>
</g>
<g>
	<g>
		<g>
			<path class="st12" d="M57.7,757.9c7.2,2,21.9,5.4,43.1,6.5c29.4,1.5,53.1-2.4,64.7-4.9"/>
			<g>
				<polygon class="st9" points="172.3,757.9 163.6,764.1 164.9,759.6 161.7,756.1 				"/>
			</g>
		</g>
	</g>
	<g>
		<g>
			<path class="st12" d="M58.6,757.9c14.1,4.2,43.1,11.6,84.7,13.9c64.1,3.6,114.3-7.1,133.8-12.1"/>
			<g>
				<polygon class="st9" points="283.9,757.9 275.3,764.3 276.5,759.8 273.2,756.5 				"/>
			</g>
		</g>
	</g>
	<g>
		<g>
			<path class="st12" d="M58.6,757.9c20.8,5.7,63.8,15.8,125.4,19c98.7,5.2,175.2-10.9,201.3-17.3"/>
			<g>
				<polygon class="st9" points="392.1,757.9 383.4,764.2 384.8,759.7 381.5,756.3 				"/>
			</g>
		</g>
	</g>
	<g>
		<g>
			<path class="st12" d="M57.7,757.5c28.4,7,86.9,19.3,170.8,23.3c137.8,6.5,243.8-14.4,276.7-21.7"/>
			<g>
				<polygon class="st9" points="512.1,757.5 503.3,763.6 504.7,759.1 501.5,755.7 				"/>
			</g>
		</g>
	</g>
</g>
<rect x="137.5" y="634.7" class="st0" width="18.5" height="17.1"/>
<text transform="matrix(1 0 0 1 137.5191 645.6089)" class="st1 st13">·2</text>
<rect x="251.1" y="634.7" class="st0" width="18.5" height="17.1"/>
<text transform="matrix(1 0 0 1 251.0826 645.6089)" class="st1 st13">·3</text>
<rect x="360.2" y="634.1" class="st0" width="18.5" height="17.1"/>
<text transform="matrix(1 0 0 1 360.2252 644.9897)" class="st1 st13">·4</text>
<rect x="477.3" y="634.7" class="st0" width="18.5" height="17.1"/>
<text transform="matrix(1 0 0 1 477.296 645.6089)" class="st1 st13">·5</text>
<rect x="173.1" y="751.9" class="st0" width="18.5" height="17.1"/>
<text transform="matrix(1 0 0 1 173.0763 762.8091)" class="st1 st13">·2</text>
<rect x="285.5" y="751.9" class="st0" width="18.5" height="17.1"/>
<text transform="matrix(1 0 0 1 285.5221 762.8091)" class="st1 st13">·3</text>
<rect x="394.7" y="751.3" class="st0" width="18.5" height="17.1"/>
<text transform="matrix(1 0 0 1 394.6656 762.1909)" class="st1 st13">·4</text>
<rect x="512.9" y="751.9" class="st0" width="18.5" height="17.1"/>
<text transform="matrix(1 0 0 1 512.8527 762.8091)" class="st1 st13">·5</text>
<rect x="867.6" y="568.5" class="st0" width="359.1" height="43.4"/>
<text transform="matrix(1 0 0 1 867.6396 602.0417)" class="st1 st2">SIMPLIFICACIÓN</text>
<g>
	<rect x="880.3" y="655.7" class="st0" width="38" height="52.8"/>
	<text transform="matrix(1 0 0 1 865.998 702.7966)" class="st3 st1 st4">24</text>
	<rect x="880.3" y="714.7" class="st0" width="38" height="52.8"/>
	<text transform="matrix(1 0 0 1 863.1543 760.8621)" class="st3 st1 st4">36</text>
	<line class="st5" x1="868.3" y1="708.5" x2="925.4" y2="708.5"/>
</g>
<g>
	<rect x="997.4" y="655.7" class="st0" width="38" height="52.8"/>
	<text transform="matrix(1 0 0 1 977.9805 702.7966)" class="st9 st1 st4">12</text>
	<rect x="997.4" y="714.7" class="st0" width="38" height="52.8"/>
	<text transform="matrix(1 0 0 1 978.5518 761.4812)" class="st9 st1 st4">18</text>
	<line class="st10" x1="985.4" y1="708.5" x2="1042.5" y2="708.5"/>
</g>
<g>
	<rect x="1114.5" y="655.7" class="st0" width="38" height="52.8"/>
	<text transform="matrix(1 0 0 1 1114.4932 702.1765)" class="st9 st1 st4">6</text>
	<rect x="1114.5" y="714.7" class="st0" width="38" height="52.8"/>
	<text transform="matrix(1 0 0 1 1118.4873 762.1013)" class="st9 st1 st4">9</text>
	<line class="st11" x1="1102.5" y1="708.5" x2="1159.6" y2="708.5"/>
</g>
<rect x="1231.6" y="655.4" class="st0" width="38" height="52.8"/>
<text transform="matrix(1 0 0 1 1210.4844 702.7966)" class="st9 st1 st4">2</text>
<rect x="1231.6" y="714.4" class="st0" width="38" height="52.8"/>
<text transform="matrix(1 0 0 1 1213.3398 760.8621)" class="st9 st1 st4">3</text>
<line class="st11" x1="1203.6" y1="708.2" x2="1260.7" y2="708.2"/>
<rect x="941.8" y="689.8" class="st0" width="27.2" height="36.9"/>
<text transform="matrix(1 0 0 1 941.7793 723.3416)" class="st1 st2">=</text>
<rect x="1058.9" y="690.1" class="st0" width="27.2" height="36.9"/>
<text transform="matrix(1 0 0 1 1058.8887 723.5945)" class="st1 st2">=</text>
<rect x="1176" y="689.8" class="st0" width="27.2" height="36.9"/>
<text transform="matrix(1 0 0 1 1175.998 723.3416)" class="st1 st2">=</text>
<g>
	<g>
		<path class="st12" d="M898.1,650.9c7.2-2,21.9-5.4,43.1-6.5c29.4-1.5,53.1,2.4,64.7,4.9"/>
		<g>
			<polygon class="st9" points="1012.7,650.9 1002.1,652.6 1005.3,649.1 1003.9,644.7 			"/>
		</g>
	</g>
</g>
<g>
	<g>
		<path class="st12" d="M903.8,772.7c7.2,2,21.9,5.4,43.1,6.5c29.4,1.5,53.1-2.4,64.7-4.9"/>
		<g>
			<polygon class="st9" points="1018.5,772.7 1009.7,778.9 1011.1,774.4 1007.9,771 			"/>
		</g>
	</g>
</g>
<rect x="1007.2" y="635.5" class="st0" width="18.5" height="17.1"/>
<text transform="matrix(1 0 0 1 1007.1572 646.3474)" class="st1 st13">:2</text>
<rect x="1019.3" y="766.8" class="st0" width="18.5" height="17.1"/>
<text transform="matrix(1 0 0 1 1019.252 777.6648)" class="st1 st13">:2</text>
<g>
	<g>
		<path class="st12" d="M1035.6,776.9c5.9,2,18.1,5.4,35.7,6.5c23.4,1.5,42.4-2.1,52.4-4.6"/>
		<g>
			<polygon class="st9" points="1130.4,776.9 1121.9,783.5 1123.1,779 1119.8,775.7 			"/>
		</g>
	</g>
</g>
<rect x="1131.1" y="771" class="st0" width="15.3" height="17.1"/>
<text transform="matrix(0.8272 0 0 1 1131.0557 781.8982)" class="st1 st13">:2</text>
<g>
	<g>
		<path class="st12" d="M1022.3,647.2c6.4-2,19.7-5.4,38.7-6.5c25.9-1.5,46.8,2.2,57.5,4.7"/>
		<g>
			<polygon class="st9" points="1125.4,647.2 1114.7,648.7 1118,645.4 1116.8,640.8 			"/>
		</g>
	</g>
</g>
<rect x="1120.4" y="631.8" class="st0" width="16.6" height="17.1"/>
<text transform="matrix(0.8989 0 0 1 1120.3975 642.7234)" class="st1 st13">:2</text>
<g>
	<g>
		<path class="st12" d="M1134.1,649.6c5.8-2,17.7-5.4,34.8-6.5c22.8-1.5,41.3,2.1,51,4.6"/>
		<g>
			<polygon class="st9" points="1226.7,649.6 1216.1,650.9 1219.4,647.6 1218.2,643.1 			"/>
		</g>
	</g>
</g>
<rect x="1222.2" y="634.2" class="st0" width="14.9" height="17.1"/>
<text transform="matrix(0.8081 0 0 1 1222.2422 645.1316)" class="st1 st13">:3</text>
<g>
	<g>
		<path class="st12" d="M1143.3,779.3c5.9,2,18.1,5.4,35.7,6.5c23.4,1.5,42.4-2.1,52.4-4.6"/>
		<g>
			<polygon class="st9" points="1238.2,779.3 1229.6,785.8 1230.8,781.3 1227.5,778 			"/>
		</g>
	</g>
</g>
<rect x="1238.8" y="773.3" class="st0" width="15.3" height="17.1"/>
<text transform="matrix(0.8272 0 0 1 1238.7734 784.2341)" class="st1 st13">:3</text>
</svg>
