<?xml version="1.0" encoding="utf-8"?>
<!-- Generator: Adobe Illustrator 26.2.1, SVG Export Plug-In . SVG Version: 6.00 Build 0)  -->
<svg version="1.1" id="Capa_1" xmlns="http://www.w3.org/2000/svg" xmlns:xlink="http://www.w3.org/1999/xlink" x="0px" y="0px"
	 viewBox="0 0 400 600" style="enable-background:new 0 0 400 600;" xml:space="preserve">
<style type="text/css">
	.st0{fill:none;}
	.st1{fill:#376EB5;}
	.st2{font-family:'Roboto-Regular';}
	.st3{font-size:46.2465px;}
	.st4{fill:#376EB5;stroke:#376EB5;stroke-width:3;stroke-miterlimit:10;}
	.st5{fill:none;stroke:#376EB5;stroke-width:3;stroke-miterlimit:10;}
	.st6{font-size:41.5168px;}
	.st7{fill:#376EB5;stroke:#1D1E1B;stroke-width:0.25;stroke-miterlimit:10;}
	.st8{fill:#FFFFFF;stroke:#1D1E1B;stroke-width:0.25;stroke-miterlimit:10;}
	.st9{font-size:34px;}
</style>
<rect x="24.6" y="128" class="st0" width="28.4" height="39.4"/>
<text transform="matrix(1 0 0 1 24.6147 162.7148)" class="st1 st2 st3">3</text>
<rect x="24.6" y="172" class="st0" width="28.4" height="39.4"/>
<text transform="matrix(1 0 0 1 24.6147 206.71)" class="st1 st2 st3">5</text>
<line class="st4" x1="15.7" y1="167.4" x2="58.2" y2="167.4"/>
<g>
	<g>
		<line class="st5" x1="58.2" y1="147.7" x2="112.6" y2="147.7"/>
		<g>
			<path class="st1" d="M122.9,147.7c-4.9,1.8-10.9,4.9-14.6,8.1l2.9-8.1l-2.9-8.1C112,142.9,118,145.9,122.9,147.7z"/>
		</g>
	</g>
</g>
<g>
	<g>
		<line class="st5" x1="58.2" y1="191.7" x2="112.6" y2="191.7"/>
		<g>
			<path class="st1" d="M122.9,191.7c-4.9,1.8-10.9,4.9-14.6,8.1l2.9-8.1l-2.9-8.1C112,186.9,118,189.9,122.9,191.7z"/>
		</g>
	</g>
</g>
<rect x="133.9" y="133.8" class="st0" width="271.7" height="40.5"/>
<text transform="matrix(1 0 0 1 133.9243 164.9482)" class="st2 st6">Numerador</text>
<rect x="131.3" y="176.9" class="st0" width="312.7" height="44.1"/>
<text transform="matrix(1 0 0 1 131.2969 208.0415)" class="st2 st6">Denominador</text>
<rect x="16.1" y="322" class="st7" width="73.6" height="51.5"/>
<rect x="89.6" y="322" class="st7" width="73.6" height="51.5"/>
<rect x="163.2" y="322" class="st7" width="73.6" height="51.5"/>
<rect x="236.8" y="322" class="st8" width="73.6" height="51.5"/>
<rect x="310.4" y="322" class="st8" width="73.6" height="51.5"/>
<rect x="134.7" y="379.2" class="st0" width="251.5" height="50"/>
<text transform="matrix(1 0 0 1 134.7221 404.7051)" class="st2 st9">5 partes en total</text>
<rect x="17.4" y="287.1" class="st0" width="169.1" height="50"/>
<text transform="matrix(1 0 0 1 17.3921 312.6321)" class="st2 st9">3 pintadas</text>
</svg>
