<?xml version="1.0" encoding="utf-8"?>
<!-- Generator: Adobe Illustrator 26.2.1, SVG Export Plug-In . SVG Version: 6.00 Build 0)  -->
<svg version="1.1" id="Capa_1" xmlns="http://www.w3.org/2000/svg" xmlns:xlink="http://www.w3.org/1999/xlink" x="0px" y="0px"
	 viewBox="0 0 400 600" style="enable-background:new 0 0 400 600;" xml:space="preserve">
<style type="text/css">
	.st0{fill:none;}
	.st1{fill:#020203;}
	.st2{font-family:'Roboto-Regular';}
	.st3{font-size:21px;}
	.st4{fill:#1E1E1C;}
	.st5{font-size:49.3193px;}
	.st6{fill:#1E1E1C;stroke:#1E1E1C;stroke-width:3;stroke-miterlimit:10;}
	.st7{fill:none;stroke:#1E1E1C;stroke-width:3;stroke-miterlimit:10;}
	.st8{font-size:35.5871px;}
	.st9{font-size:28.9407px;}
	.st10{fill:#396FB6;}
	.st11{fill:none;stroke:#396FB6;stroke-width:3;stroke-miterlimit:10;}
	.st12{font-size:20.8826px;}
	.st13{font-size:21.3996px;}
	.st14{font-size:34.6652px;}
	.st15{font-size:46.4007px;}
	.st16{font-size:44.7629px;}
</style>
<rect x="5" y="16.8" class="st0" width="385.1" height="100.5"/>
<text transform="matrix(1 0 0 1 39.383 32.5878)"><tspan x="0" y="0" class="st1 st2 st3">Para sumar o restar fracciones de </tspan><tspan x="6.2" y="25.2" class="st1 st2 st3">distinto denominador, se buscan </tspan><tspan x="-9.7" y="50.4" class="st1 st2 st3">fracciones equivalentes hasta hallar </tspan><tspan x="-3.1" y="75.6" class="st1 st2 st3">fracciones con igual denominador:</tspan></text>
<g>
	<rect x="117.5" y="126.6" class="st0" width="30.3" height="42"/>
	<text transform="matrix(1 0 0 1 117.5248 164.5764)" class="st4 st2 st5">2</text>
	<rect x="117.5" y="173.5" class="st0" width="30.3" height="42"/>
	<text transform="matrix(1 0 0 1 119.7641 207.6286)" class="st1 st2 st5">3</text>
	<line class="st6" x1="108" y1="168.6" x2="153.4" y2="168.6"/>
</g>
<g>
	<rect x="210.8" y="126.6" class="st0" width="30.3" height="42"/>
	<text transform="matrix(1 0 0 1 210.7631 163.59)" class="st4 st2 st5">1</text>
	<rect x="210.8" y="173.5" class="st0" width="30.3" height="42"/>
	<text transform="matrix(1 0 0 1 213.9418 211.2936)" class="st1 st2 st5">2</text>
	<line class="st7" x1="201.2" y1="168.6" x2="246.6" y2="168.6"/>
</g>
<rect x="166.5" y="153.9" class="st0" width="21.7" height="29.3"/>
<text transform="matrix(1 0 0 1 166.4975 180.6398)" class="st1 st2 st8">+</text>
<g>
	<rect x="38.4" y="274.2" class="st0" width="17.8" height="24.7"/>
	<text transform="matrix(1 0 0 1 38.4039 296.5175)" class="st4 st2 st9">2</text>
	<rect x="38.4" y="301.8" class="st0" width="17.8" height="24.7"/>
	<text transform="matrix(1 0 0 1 39.7179 321.7798)" class="st1 st2 st9">3</text>
	<line class="st6" x1="32.8" y1="298.9" x2="59.5" y2="298.9"/>
</g>
<g>
	<rect x="93.1" y="274.2" class="st0" width="17.8" height="24.7"/>
	<text transform="matrix(1 0 0 1 93.1159 295.938)" class="st10 st2 st9">4</text>
	<rect x="93.1" y="301.8" class="st0" width="17.8" height="24.7"/>
	<text transform="matrix(1 0 0 1 94.9816 323.9306)" class="st10 st2 st9">6</text>
	<line class="st11" x1="87.5" y1="298.9" x2="114.2" y2="298.9"/>
</g>
<rect x="67.1" y="290.3" class="st0" width="12.7" height="17.2"/>
<text transform="matrix(1 0 0 1 67.1413 305.9433)" class="st1 st2 st12">=</text>
<rect x="30.6" y="248.1" class="st0" width="129.4" height="17.3"/>
<text transform="matrix(1 0 0 1 30.5934 264.1899)" class="st10 st2 st13">Equivalentes:</text>
<g>
	<rect x="148.6" y="274.8" class="st0" width="17.8" height="24.7"/>
	<text transform="matrix(1 0 0 1 148.6471 296.5219)" class="st4 st2 st9">6</text>
	<rect x="148.6" y="302.4" class="st0" width="17.8" height="24.7"/>
	<text transform="matrix(1 0 0 1 150.5128 324.5146)" class="st1 st2 st9">9</text>
	<line class="st7" x1="143.1" y1="299.5" x2="169.7" y2="299.5"/>
</g>
<rect x="122.7" y="290.3" class="st0" width="12.7" height="17.2"/>
<text transform="matrix(1 0 0 1 122.6725 305.9433)" class="st1 st2 st12">=</text>
<g>
	<rect x="205.9" y="274.8" class="st0" width="17.8" height="24.7"/>
	<text transform="matrix(1 0 0 1 205.8898 296.5219)" class="st4 st2 st9">8</text>
	<rect x="205.9" y="302.4" class="st0" width="17.8" height="24.7"/>
	<text transform="matrix(1 0 0 1 196.5333 323.9306)" class="st1 st2 st9">12</text>
	<line class="st7" x1="200.3" y1="299.5" x2="226.9" y2="299.5"/>
</g>
<rect x="178.8" y="290.9" class="st0" width="12.7" height="17.2"/>
<text transform="matrix(1 0 0 1 178.7731 306.5273)" class="st1 st2 st12">=</text>
<g>
	<g>
		<rect x="37.5" y="327" class="st0" width="17.8" height="24.7"/>
		<text transform="matrix(1 0 0 1 37.548 349.3222)" class="st4 st2 st9">1</text>
		<rect x="37.5" y="354.6" class="st0" width="17.8" height="24.7"/>
		<text transform="matrix(1 0 0 1 38.862 374.5854)" class="st1 st2 st9">2</text>
		<line class="st6" x1="32" y1="351.7" x2="58.6" y2="351.7"/>
	</g>
	<g>
		<rect x="92.3" y="327" class="st0" width="17.8" height="24.7"/>
		<text transform="matrix(1 0 0 1 92.2604 348.7431)" class="st4 st2 st9">2</text>
		<rect x="92.3" y="354.6" class="st0" width="17.8" height="24.7"/>
		<text transform="matrix(1 0 0 1 94.1256 376.7363)" class="st1 st2 st9">4</text>
		<line class="st7" x1="86.7" y1="351.7" x2="113.3" y2="351.7"/>
	</g>
	<rect x="66.3" y="343.1" class="st0" width="12.7" height="17.2"/>
	<text transform="matrix(1 0 0 1 66.2858 358.748)" class="st1 st2 st12">=</text>
</g>
<g>
	<rect x="147.8" y="327.6" class="st0" width="17.8" height="24.7"/>
	<text transform="matrix(1 0 0 1 147.7916 349.3271)" class="st10 st2 st9">3</text>
	<rect x="147.8" y="355.2" class="st0" width="17.8" height="24.7"/>
	<text transform="matrix(1 0 0 1 149.6569 377.3203)" class="st10 st2 st9">6</text>
	<line class="st11" x1="142.2" y1="352.3" x2="168.8" y2="352.3"/>
</g>
<rect x="121.8" y="343.1" class="st0" width="12.7" height="17.2"/>
<text transform="matrix(1 0 0 1 121.817 358.748)" class="st1 st2 st12">=</text>
<g>
	<rect x="205" y="327.6" class="st0" width="17.8" height="24.7"/>
	<text transform="matrix(1 0 0 1 205.0343 349.3271)" class="st4 st2 st9">4</text>
	<rect x="205" y="355.2" class="st0" width="17.8" height="24.7"/>
	<text transform="matrix(1 0 0 1 205.8829 377.6093)" class="st1 st2 st9">8</text>
	<line class="st7" x1="199.4" y1="352.3" x2="226.1" y2="352.3"/>
</g>
<rect x="177.9" y="343.7" class="st0" width="12.7" height="17.2"/>
<text transform="matrix(1 0 0 1 177.9176 359.332)" class="st1 st2 st12">=</text>
<g>
	<rect x="132.1" y="456.7" class="st0" width="21.1" height="28.6"/>
	<text transform="matrix(1 0 0 1 132.0731 482.7126)" class="st1 st2 st14">+</text>
	<g>
		<rect x="80.1" y="433.1" class="st0" width="28.5" height="39.6"/>
		<text transform="matrix(1 0 0 1 80.0985 467.9533)" class="st10 st2 st15">4</text>
		<rect x="80.1" y="477.3" class="st0" width="28.5" height="39.6"/>
		<text transform="matrix(1 0 0 1 83.0888 512.8342)" class="st10 st2 st15">6</text>
		<line class="st11" x1="71.1" y1="472.7" x2="113.9" y2="472.7"/>
	</g>
	<g>
		<rect x="176.1" y="432.8" class="st0" width="27.5" height="38.2"/>
		<text transform="matrix(1 0 0 1 176.0668 466.4387)" class="st10 st2 st16">3</text>
		<rect x="176.1" y="475.5" class="st0" width="27.5" height="38.2"/>
		<text transform="matrix(1 0 0 1 178.952 509.7361)" class="st10 st2 st16">6</text>
		<line class="st11" x1="167.4" y1="471" x2="208.6" y2="471"/>
	</g>
	<rect x="227.1" y="456.7" class="st0" width="21.1" height="28.6"/>
	<text transform="matrix(1 0 0 1 227.0604 482.7126)" class="st1 st2 st14">=</text>
	<g>
		<rect x="277.5" y="430.6" class="st0" width="27.5" height="38.2"/>
		<text transform="matrix(1 0 0 1 277.5526 464.2146)" class="st4 st2 st16">7</text>
		<rect x="277.5" y="473.2" class="st0" width="27.5" height="38.2"/>
		<text transform="matrix(1 0 0 1 280.4384 507.5119)" class="st4 st2 st16">6</text>
		<line class="st6" x1="268.9" y1="468.8" x2="310.1" y2="468.8"/>
	</g>
</g>
</svg>
